# Blender v2.75 (sub 0) OBJ File: ''
# www.blender.org
mtllib tcube.mtl
o Cube
v 0.622225 -0.916986 -0.247010
v 0.622225 -0.916986 1.752990
v -1.377776 -0.916986 1.752990
v -1.377775 -0.916986 -0.247011
v 0.622225 1.083014 -0.247010
v 0.622224 1.083014 1.752990
v -1.377776 1.083014 1.752989
v -1.377775 1.083014 -0.247010
vt 0.999913 0.250043
vt 0.999913 0.500000
vt 0.749957 0.500000
vt 0.749957 0.250043
vt 0.250043 0.250043
vt 0.500000 0.250043
vt 0.500000 0.500000
vt 0.250043 0.500000
vt 0.000087 0.250044
vt 0.000087 0.500000
vt 0.749957 0.749956
vt 0.500000 0.749956
vt 0.500000 0.000087
vt 0.749956 0.000087
vn 0.000000 -1.000000 0.000000
vn 0.000000 1.000000 0.000000
vn 1.000000 0.000000 0.000000
vn -0.000000 -0.000000 1.000000
vn -1.000000 -0.000000 -0.000000
vn 0.000000 0.000000 -1.000000
usemtl Material
s off
f 1/1/1 2/2/1 3/3/1 4/4/1
f 5/5/2 8/6/2 7/7/2 6/8/2
f 1/9/3 5/5/3 6/8/3 2/10/3
f 2/11/4 6/12/4 7/7/4 3/3/4
f 3/3/5 7/7/5 8/6/5 4/4/5
f 5/13/6 1/14/6 4/4/6 8/6/6
